# Made using Asset Forge (www.assetforge.io) version 1.3 

mtllib openBottom.mtl 

g struct_floor_main_half_0

v 1.5 0 -1.5
v 1.5 0 2.5
v -2.5 0 2.5
v -2.5 0 -1.5
vn 0 1 0
vt -1.5 -1.5
vt -1.5 2.5
vt 2.5 2.5
vt 2.5 -1.5

usemtl Dark_Grey (Instance)
usemap Dark_Grey (Instance)
f 3/3/1 2/2/1 1/1/1
f 4/4/1 3/3/1 1/1/1
g struct_wall_main_half_1

v -2.35 2 2.5
v -2.35 2 1.5
v -2.35 0 2.5
v -2.35 0 1.5
vn 1 0 -1.192093E-07
vt -2.5 2
vt -1.5 2
vt -2.5 0
vt -1.5 0

usemtl Dark_Grey (Instance) (Instance)
usemap Dark_Grey (Instance) (Instance)
f 7/7/2 6/6/2 5/5/2
f 7/7/2 8/8/2 6/6/2
g struct_wall_main_half_2

v 1.5 2 2.35
v -2.5 2 2.35
v 1.5 0 2.35
v -2.5 0 2.35
vn 8.742278E-08 0 -1
vt 2.5 2
vt 2.5 0

usemtl Dark_Grey (Instance) (Instance)
usemap Dark_Grey (Instance) (Instance)
f 11/8/3 10/9/3 9/6/3
f 11/8/3 12/10/3 10/9/3
g struct_wall_big_door_lower_3

v -2.5 1 0.1000001
v -2.35 1 0.1000001
v -2.5 0.494793 0.1000001
v -2.35 1 -0.2
v -2.3 1 -0.15
v -2.3 1 0.05000004
v -2.5 1 -0.2
v -2.5 1 -0.09031796
v -2.3 0 -0.15
v -2.3 0 0.05000004
v -2.35 0 -0.2
v -2.5 0 -0.2
v -2.5 0.508784 -0.2
v -2.5 0 -0.01360494
v -2.5 0 0.1000001
v -2.35 0 0.1000001
v -2.5 0.494793 -0.2
v -2.3 0 1.15
v -2.3 0 0.9500002
v -2.35 0 0.9000001
v -2.5 0 1.086395
v -2.5 0 1.2
v -2.35 0 1.2
v -2.35 1 1.2
v -2.3 1 1.15
v -2.5 1 0.9000002
v -2.35 1 0.9000001
v -2.5 1 1.009682
v -2.3 1 0.9500002
v -2.5 1 1.2
v -2.5 0.494793 1.2
v -2.5 0 0.9000002
v -2.5 0.508785 0.9000002
v -2.5 0.508785 1.2
v -2.35 1 -0.5
v -2.35 0 -0.5
v -2.5 1 -0.390318
v -2.5 1 -0.4999999
v -2.5 0 -0.4999999
v -2.5 0 -0.386395
v -2.5 0.494794 -0.4999999
v -2.5 0 1.386395
v -2.5 0 1.5
v -2.35 0 1.5
v -2.35 1 1.5
v -2.5 0.508785 1.5
v -2.5 1 1.5
v -2.5 1 1.390318
vn 1.192093E-07 0 1
vn 0.7071 0 -0.7071001
vn -1.192093E-07 0 -1
vn 0 -1 0
vn 0.7071001 0 0.7071
vt -2.5 1
vt -2.35 1
vt -2.5 0.494793
vt 2.35 -0.2
vt 2.3 -0.15
vt 2.3 0.05000004
vt 2.5 -0.2
vt 2.35 0.1000001
vt 2.5 -0.09031795
vt 0.15 0
vt -0.05000004 0
vt 0.15 1
vt -0.05000004 1
vt 2.35 0
vt 2.3 0
vt 2.35 1
vt 2.3 1
vt 2.5 0.508784
vt 2.3 -0.05000004
vt 2.3 0.15
vt 2.35 0.2
vt 2.5 0.01360494
vt 2.5 -0.1000001
vt 2.35 -0.1000001
vt -0.1000001 1
vt -0.1000001 0
vt 2.5 0.2
vt 2.5 1
vt 2.5 0.1000001
vt -2.35 0
vt -2.35 1
vt -2.35 0
vt 2.3 -1.15
vt 2.3 -0.9500002
vt 2.35 -0.9000001
vt 2.5 -1.086395
vt 2.5 -1.2
vt 2.35 -1.2
vt -1.2 1
vt -1.15 1
vt -1.2 0
vt -1.15 0
vt 2.5 0.9000002
vt 2.35 0.9000001
vt 2.35 1.2
vt 2.5 1.009682
vt 2.3 0.9500002
vt 2.3 1.15
vt 2.35 0
vt 2.5 0.508785
vt -0.9000001 0
vt -0.9500002 0
vt -0.9500002 1
vt -0.9000001 1
vt 2.5 1.2
vt 2.35 1
vt 2.5 -0.9000002
vt 0.2 1
vt 0.5 1
vt 0.2 0
vt 0.5 0
vt 2.5 -0.390318
vt 2.5 -0.5
vt 2.35 -0.5
vt 2.35 0.5
vt 2.5 0.5
vt 2.5 0.386395
vt 2.5 0.494794
vt 2.5 -1.386395
vt 2.5 -1.5
vt 2.35 -1.5
vt -1.5 0
vt -1.5 1
vt -2.5 0.508785
vt 2.5 1.390318
vt 2.35 1.5
vt 2.5 1.5

usemtl Grey (Instance)
usemap Grey (Instance)
f 15/13/4 14/12/4 13/11/4
f 18/16/1 17/15/1 16/14/1
f 14/18/1 16/14/1 19/17/1
f 19/17/1 20/19/1 14/18/1
f 14/18/1 18/16/1 16/14/1
f 17/22/2 22/21/2 21/20/2
f 17/22/2 18/23/2 22/21/2
f 16/26/5 21/25/5 23/24/5
f 16/26/5 17/27/5 21/25/5
f 25/28/6 23/24/6 24/10/6
f 23/31/7 21/30/7 22/29/7
f 28/34/7 27/33/7 26/32/7
f 23/31/7 22/29/7 28/34/7
f 22/21/8 18/23/8 14/35/8
f 28/36/8 22/21/8 14/35/8
f 24/37/7 23/31/7 28/34/7
f 28/34/7 26/32/7 24/37/7
f 19/38/6 16/26/6 23/24/6
f 23/24/6 25/28/6 19/38/6
f 20/19/1 13/39/1 14/18/1
f 27/7/4 28/40/4 14/12/4
f 14/12/4 15/13/4 27/7/4
f 29/13/4 16/41/4 19/11/4
f 24/7/4 23/42/4 16/41/4
f 16/41/4 29/13/4 24/7/4
f 32/45/7 31/44/7 30/43/7
f 35/48/7 34/47/7 33/46/7
f 32/45/7 30/43/7 35/48/7
f 35/51/8 37/50/8 36/49/8
f 35/51/8 30/52/8 37/50/8
f 36/55/1 39/54/1 38/53/1
f 38/53/1 40/56/1 36/55/1
f 37/58/1 41/57/1 39/54/1
f 36/55/1 37/58/1 39/54/1
f 43/13/4 36/12/4 42/11/4
f 45/60/6 32/59/6 44/10/6
f 41/63/5 31/62/5 32/61/5
f 39/64/5 41/63/5 32/61/5
f 41/63/2 30/52/2 31/62/2
f 41/63/2 37/50/2 30/52/2
f 40/56/1 42/65/1 36/55/1
f 38/38/6 39/66/6 32/59/6
f 32/59/6 45/60/6 38/38/6
f 34/7/4 35/40/4 36/12/4
f 36/12/4 43/13/4 34/7/4
f 44/67/7 32/45/7 35/48/7
f 35/48/7 33/46/7 44/67/7
f 46/60/6 35/59/6 34/10/6
f 42/38/6 36/66/6 35/59/6
f 35/59/6 46/60/6 42/38/6

usemtl Dark_Grey (Instance) (Instance)
usemap Dark_Grey (Instance) (Instance)
f 23/70/2 47/69/2 16/68/2
f 23/70/2 48/71/2 47/69/2
f 16/14/1 49/72/1 19/17/1
f 16/14/1 47/74/1 50/73/1
f 50/73/1 49/72/1 16/14/1
f 52/77/7 51/76/7 48/75/7
f 53/78/6 47/26/6 48/24/6
f 48/24/6 51/10/6 53/78/6
f 53/78/6 50/38/6 47/26/6
f 52/77/7 48/75/7 23/31/7
f 23/31/7 24/37/7 52/77/7
f 56/81/7 55/80/7 54/79/7
f 35/48/7 56/81/7 54/79/7
f 54/79/7 34/47/7 35/48/7
f 36/49/2 56/82/2 35/51/2
f 36/49/2 57/83/2 56/82/2
f 56/40/4 58/84/4 55/7/4
f 56/40/4 57/12/4 59/11/4
f 59/11/4 58/84/4 56/40/4
f 42/65/1 60/85/1 36/55/1
f 59/87/1 57/86/1 36/55/1
f 36/55/1 60/85/1 59/87/1
g struct_wall_main_half_4

v -2.35 2 -0.4999999
v -2.35 2 -1.5
v -2.35 0 -0.4999999
v -2.35 0 -1.5
vt 0.4999999 2
vt 1.5 2
vt 0.4999999 0
vt 1.5 0

usemtl Dark_Grey (Instance) (Instance)
usemap Dark_Grey (Instance) (Instance)
f 63/90/2 62/89/2 61/88/2
f 63/90/2 64/91/2 62/89/2
g struct_wall_main_half_5

v -2.5 2 -1.35
v 1.5 2 -1.35
v -2.5 0 -1.35
v 1.5 0 -1.35
vn 0 0 1

usemtl Dark_Grey (Instance) (Instance)
usemap Dark_Grey (Instance) (Instance)
f 67/7/9 66/89/9 65/5/9
f 67/7/9 68/91/9 66/89/9
g struct_wall_main_half_6

v 1.35 2 -1.5
v 1.35 2 2.5
v 1.35 0 -1.5
v 1.35 0 2.5
vn -1 0 -1.192093E-07
vt -1.5 2
vt 2.5 2
vt 2.5 0

usemtl Dark_Grey (Instance) (Instance)
usemap Dark_Grey (Instance) (Instance)
f 71/82/10 70/93/10 69/92/10
f 71/82/10 72/94/10 70/93/10
g struct_wall_big_door_upper_8

v -2.5 1 1.311324
v -2.5 1.569447 1.5
v -2.5 2 1.5
v -2.35 2 1.5
v -2.35 1.35 -0.106218
v -2.35 2 -0.5
v -2.35 1.606218 0.1500001
v -2.35 1.7 0.5000001
v -2.35 1.606218 0.8500001
v -2.35 1.35 1.106218
v -2.5 2 0.5489611
v -2.5 1.414356 -0.4999999
v -2.5 1 -0.3113239
v -2.5 2 -0.4999999
v -2.5 1.606218 0.8500002
v -2.5 1.658747 0.6539581
v -2.5 1.35 1.106218
v -2.5 1.497819 0.9583992
v -2.5 1.212359 1.143099
v -2.5 1.35 -0.106218
v -2.5 1.134806 -0.163879
v -2.5 1.606218 0.1500001
v -2.5 1.457315 0.001097053
v -2.5 1.7 0.5000001
v -2.5 1.647359 0.3035421
v -2.5 1.4 0.5000001
v -2.35 1.4 0.5000001
v -2.5 1.368358 0.3819101
v -2.5 1.34641 0.7000001
v -2.35 1.34641 0.7
v -2.5 1.377998 0.5821121
v -2.5 1.2 0.8464102
v -2.35 1.2 0.8464102
v -2.5 1.287681 0.7587292
v -2.5 1.12321 0.8669862
v -2.5 1 1.088675
v -2.3 1 1.148236
v -2.3 1 0.9517641
v -2.3 1 -0.148236
v -2.3 1.324118 -0.06138897
v -2.3 1.561389 0.175882
v -2.3 1.648236 0.5000001
v -2.3 1.561389 0.8241181
v -2.3 1.324118 1.061389
v -2.3 1 0.04823604
v -2.5 1 -0.01132494
v -2.35 1.2 0.15359
v -2.3 1.225882 0.108761
v -2.35 1.34641 0.3000001
v -2.3 1.391239 0.2741181
v -2.5 1.2 0.1535901
v -2.5 1.0758 0.1203101
v -2.3 1.225882 0.8912392
v -2.3 1.391239 0.7258821
v -2.3 1.451764 0.5000001
v -2.5 1.34641 0.3000001
v -2.5 1.25828 0.2118691
vn -2.980232E-08 -0.9659 -0.2588
vn -5.960464E-08 -0.7071 -0.7071
vn -1.192093E-07 -0.2588 -0.9659001
vn 1.192093E-07 -0.2588 0.9659001
vn 5.960464E-08 -0.7071 0.7071
vn 2.980232E-08 -0.9659 0.2588
vn 5.960464E-08 0.7071 0.7071
vn 2.980232E-08 0.9659 0.2588
vn -2.980232E-08 0.9659 -0.2588
vn -5.960464E-08 0.7071 -0.7071
vn -1.192093E-07 0.2588 -0.9659001
vn 0.7071 0.183 -0.6830001
vn 0.7071 0.5 -0.5000001
vn 0.7071 0.683 -0.1830001
vn 0.7071 0.683 0.183
vn 0.7071001 0.5 0.5
vn 0.7071001 -0.183 0.683
vn 0.7071001 -0.5 0.5
vn 0.7071001 0.183 0.683
vn 1.192093E-07 0.2588 0.9659001
vn 0.7071 -0.183 -0.6830001
vn 0.7071 -0.5 -0.5000001
vn 0.7071 -0.683 -0.1830001
vn 0.7071 -0.683 0.183
vt 2.5 -1.311324
vt -2.5 1.569447
vt -2.35 2
vt 0.106218 1.35
vt 0.5 2
vt -0.1500001 1.606218
vt -0.5000001 1.7
vt -0.8500001 1.606218
vt -1.106218 1.35
vt 2.5 0.5489611
vt 2.35 2
vt 2.5 1.414356
vt 2.5 0.311324
vt 2.5 -0.8500002
vt 2.35 -0.8500001
vt 2.5 -0.6539581
vt 2.5 -1.106218
vt 2.35 -1.106218
vt 2.5 -0.9583992
vt 2.5 1.212359
vt -2.5 1.35
vt -2.35 1.35
vt -2.5 1.134806
vt 2.5 -0.1500001
vt 2.35 -0.1500001
vt 2.5 -0.00109706
vt 2.5 -0.5000001
vt 2.35 -0.5000001
vt 2.5 -0.3035421
vt 2.35 1.35
vt 2.5 1.35
vt 2.35 1.606218
vt 2.5 1.606218
vt 2.5 1.497819
vt 2.35 0.106218
vt 2.5 0.106218
vt 2.5 -0.3819101
vt 2.5 -0.7000001
vt 2.35 -0.7000001
vt 2.5 -0.5821121
vt 2.5 -0.8464102
vt 2.35 -0.8464101
vt 2.5 -0.7587292
vt 2.5 1.12321
vt 2.5 -1.088675
vt 2.3 -1.148236
vt 2.3 -0.9517642
vt -2.5 1.606218
vt -2.35 1.606218
vt -2.35 1.35
vt -2.5 1.497819
vt 2.5 0.9583992
vt 2.35 1.106218
vt 2.5 1.106218
vt 2.5 0.5000001
vt 2.35 0.5000001
vt 2.35 0.8500001
vt 2.5 0.6539581
vt 2.5 0.8500002
vt 2.5 0.1500001
vt 2.35 0.1500001
vt 2.5 0.3035421
vt 2.5 -0.106218
vt 2.35 -0.106218
vt 2.5 0.00109706
vt 2.35 1.35
vt 2.5 1.134806
vt 0.148236 1
vt 0.06138897 1.324118
vt -0.1758821 1.561389
vt -0.5000001 1.648236
vt -0.8241181 1.561389
vt -1.061389 1.324118
vt 2.3 -0.04823604
vt 2.3 0.148236
vt 2.5 0.01132494
vt -0.1535901 1.2
vt -0.108761 1.225882
vt -0.04823604 1
vt -0.3000001 1.34641
vt -0.2741181 1.391239
vt -2.5 1.2
vt -2.35 1.2
vt -2.5 1.0758
vt -0.8912391 1.225882
vt -0.9517642 1
vt -1.148236 1
vt -0.7258821 1.391239
vt -0.5000001 1.451764
vt -2.5 1.212359
vt -0.8464101 1.2
vt -0.7000001 1.34641
vt -0.5000001 1.4
vt 2.5 -0.3000001
vt 2.35 -0.3000001
vt 2.5 -0.2118691
vt 2.35 1.2
vt 2.35 1.34641
vt 2.5 1.34641
vt 2.5 1.287681
vt 2.5 1.2
vt 2.35 -0.1535901
vt 2.5 -0.1535901
vt -2.5 1.25828
vt -2.35 1.34641

usemtl Dark_Grey (Instance) (Instance)
usemap Dark_Grey (Instance) (Instance)
f 57/81/7 59/80/7 73/95/7
f 36/48/7 57/81/7 73/95/7
f 73/95/7 42/47/7 36/48/7
f 57/12/4 74/96/4 59/11/4
f 57/12/4 76/97/4 75/5/4
f 75/5/4 74/96/4 57/12/4
f 77/98/2 16/68/2 47/69/2
f 79/100/2 77/98/2 78/99/2
f 80/101/2 78/99/2 76/92/2
f 76/92/2 81/102/2 80/101/2
f 76/92/2 82/103/2 81/102/2
f 57/83/2 36/49/2 82/103/2
f 76/92/2 57/83/2 82/103/2
f 80/101/2 79/100/2 78/99/2
f 77/98/2 47/69/2 78/99/2
f 75/87/1 76/86/1 78/74/1
f 78/74/1 83/104/1 75/87/1
f 84/106/6 78/105/6 47/26/6
f 47/26/6 50/38/6 84/106/6
f 85/107/7 50/76/7 47/75/7
f 85/107/7 47/75/7 16/31/7
f 16/31/7 19/37/7 85/107/7
f 86/73/1 83/104/1 78/74/1
f 84/106/6 86/9/6 78/105/6

usemtl Grey (Instance) (Instance)
usemap Grey (Instance) (Instance)
f 88/110/11 81/109/11 87/108/11
f 90/113/12 82/112/12 89/111/12
f 91/114/13 36/66/13 42/38/13
f 93/117/14 77/116/14 92/115/14
f 95/120/15 79/119/15 94/118/15
f 97/123/16 80/122/16 96/121/16
f 94/118/16 79/119/16 80/122/16
f 80/122/16 97/123/16 94/118/16
f 19/11/14 16/41/14 77/116/14
f 77/116/14 93/117/14 19/11/14
f 89/125/13 82/124/13 36/66/13
f 36/66/13 91/114/13 89/125/13
f 87/127/12 81/126/12 82/124/12
f 82/124/12 90/128/12 87/127/12
f 92/130/15 77/129/15 79/119/15
f 79/119/15 95/120/15 92/130/15
f 96/121/11 80/122/11 81/109/11
f 81/109/11 88/110/11 96/121/11
f 100/131/16 99/122/16 98/121/16
f 103/134/11 102/133/11 101/132/11
f 106/137/12 105/136/12 104/135/12
f 107/138/13 39/66/13 38/38/13
f 39/45/7 36/48/7 42/47/7
f 42/47/7 108/139/7 39/45/7
f 39/45/7 109/140/7 36/48/7
f 39/45/7 110/141/7 109/140/7
f 82/144/17 81/143/17 87/142/17
f 87/142/17 90/145/17 82/144/17
f 89/148/17 82/147/17 90/146/17
f 81/151/18 80/150/18 96/149/18
f 96/149/18 88/152/18 81/151/18
f 87/153/18 81/151/18 88/152/18
f 80/150/19 79/155/19 94/154/19
f 94/154/19 97/156/19 80/150/19
f 96/149/19 80/150/19 97/156/19
f 79/155/20 77/158/20 92/157/20
f 92/157/20 95/159/20 79/155/20
f 94/154/20 79/155/20 95/159/20
f 77/160/21 16/26/21 19/38/21
f 19/38/21 93/161/21 77/160/21
f 92/125/21 77/160/21 93/161/21
f 112/163/22 111/162/22 16/68/22
f 77/98/22 112/163/22 16/68/22
f 113/164/23 112/163/23 77/98/23
f 79/100/23 113/164/23 77/98/23
f 114/165/24 113/164/24 79/100/24
f 80/101/24 114/165/24 79/100/24
f 115/166/25 114/165/25 80/101/25
f 81/102/25 115/166/25 80/101/25
f 116/167/26 115/166/26 81/102/26
f 82/103/26 116/167/26 81/102/26
f 16/31/7 111/169/7 117/168/7
f 16/31/7 14/34/7 13/33/7
f 13/33/7 118/170/7 16/31/7
f 16/31/7 117/168/7 14/34/7
f 14/35/27 120/172/27 119/171/27
f 14/35/27 117/173/27 120/172/27
f 119/171/28 122/175/28 121/174/28
f 119/171/28 120/172/28 122/175/28
f 124/178/14 119/177/14 123/176/14
f 109/181/2 110/180/2 125/179/2
f 116/167/2 125/179/2 126/182/2
f 115/166/2 126/182/2 127/183/2
f 114/165/2 115/166/2 127/183/2
f 127/183/2 113/164/2 114/165/2
f 122/175/2 112/163/2 113/164/2
f 122/175/2 120/172/2 112/163/2
f 120/172/2 117/173/2 111/162/2
f 120/172/2 111/162/2 112/163/2
f 127/183/2 122/175/2 113/164/2
f 115/166/2 116/167/2 126/182/2
f 116/167/2 109/181/2 125/179/2
f 109/181/29 116/167/29 82/103/29
f 36/49/29 109/181/29 82/103/29
f 36/12/30 82/144/30 89/115/30
f 89/115/30 91/184/30 36/12/30
f 42/11/30 36/12/30 91/184/30
f 105/185/31 110/180/31 39/64/31
f 105/185/31 125/179/31 110/180/31
f 102/186/32 125/179/32 105/185/32
f 102/186/32 126/182/32 125/179/32
f 99/187/33 126/182/33 102/186/33
f 99/187/33 127/183/33 126/182/33
f 129/190/15 121/189/15 128/188/15
f 121/174/34 127/183/34 99/187/34
f 121/174/34 122/175/34 127/183/34
f 128/188/16 121/189/16 99/122/16
f 99/122/16 100/131/16 128/188/16
f 118/170/7 19/37/7 16/31/7
f 98/121/11 99/122/11 102/133/11
f 102/133/11 103/134/11 98/121/11
f 101/193/12 102/192/12 105/191/12
f 105/191/12 106/194/12 101/193/12
f 104/195/13 105/191/13 39/66/13
f 39/66/13 107/138/13 104/195/13
f 108/139/7 38/67/7 39/45/7
f 123/197/15 119/196/15 121/189/15
f 121/199/15 129/198/15 123/176/15
f 13/11/14 14/12/14 119/177/14
f 119/177/14 124/178/14 13/11/14
g struct_wall_big_door_base_half_9

v -2.5 0 -0.15
v -2.5 0 -0.329456
v -2.35 0.2 -0.15
v -2.3 0.15 -0.15
v -2.5 0.116354 -0.15
v -2.5 0.2 -0.15
v -2.5 0.2 -0.4999999
v -2.35 0.2 -0.5
v -2.5 0.2 -0.296784
v -2.3 0.15 -0.5
v -2.3 0 -0.5
v -2.5 0.098604 -0.4999999
v -2.35 0.2 1.5
v -2.3 0.15 1.5
v -2.3 0 1.5
v -2.5 0.120712 1.5
v -2.5 0.2 1.5
v -2.5 0.2 1.15
v -2.35 0.2 1.15
v -2.5 0.2 1.275289
v -2.3 0.15 1.15
v -2.5 0 1.316739
v -2.5 0.139815 1.15
v -2.5 0 1.15
vn 0.7071 0.7071 -5.960464E-08
vt 2.5 0.15
vt 2.5 0.329456
vt -2.35 0.2
vt -2.3 0.15
vt -2.3 0
vt -2.5 0.116354
vt -2.5 0.2
vt 2.35 -0.15
vt 2.5 -0.296784
vt 2.5 -0.15
vt 0.5 0.2
vt 0.5 0.15
vt 0.15 0.15
vt 2.3 0
vt 2.3 0.15
vt 2.35 0.2
vt 2.3 0.5
vt 2.5 0.098604
vt 2.5 0.2
vt -2.35 0.2
vt -2.5 0.120712
vt 2.5 1.15
vt 2.35 1.15
vt 2.5 1.275289
vt -1.15 0.15
vt -1.5 0.15
vt -1.15 0.2
vt -1.5 0.2
vt 2.3 0.15
vt 2.35 0.2
vt 2.3 -1.5
vt 2.5 -1.316739
vt 2.5 0.139815
vt 2.5 -1.15

usemtl Grey (Instance) (Instance)
usemap Grey (Instance) (Instance)
f 131/201/7 21/30/7 130/200/7
f 21/204/4 133/203/4 132/202/4
f 130/7/4 21/204/4 134/205/4
f 21/204/4 132/202/4 135/206/4
f 135/206/4 134/205/4 21/204/4
f 132/207/1 137/74/1 136/73/1
f 136/73/1 138/208/1 132/207/1
f 135/209/1 132/207/1 138/208/1
f 133/212/35 139/211/35 137/210/35
f 132/207/35 133/15/35 137/74/35
f 137/215/6 139/214/6 140/213/6
f 21/20/2 140/71/2 139/211/2
f 133/212/2 21/20/2 139/211/2
f 51/76/7 140/216/7 21/30/7
f 21/30/7 131/201/7 51/76/7
f 51/10/6 141/217/6 140/213/6
f 136/218/6 137/215/6 140/213/6
f 140/213/6 141/217/6 136/218/6
f 144/204/4 143/203/4 142/219/4
f 55/7/4 144/204/4 145/220/4
f 144/204/4 142/219/4 146/206/4
f 146/206/4 145/220/4 144/204/4
f 142/86/1 148/222/1 147/221/1
f 147/221/1 149/223/1 142/86/1
f 146/87/1 142/86/1 149/223/1
f 144/82/2 30/52/2 150/224/2
f 143/225/2 144/82/2 150/224/2
f 143/225/35 150/224/35 148/226/35
f 142/227/35 143/225/35 148/226/35
f 148/229/6 150/228/6 30/25/6
f 151/231/7 144/230/7 55/80/7
f 153/10/6 152/232/6 30/25/6
f 153/233/7 30/43/7 144/230/7
f 144/230/7 151/231/7 153/233/7
f 147/218/6 148/229/6 30/25/6
f 30/25/6 152/232/6 147/218/6
g struct_wall_base_half_10

v -2.5 0.2 1.5
v -2.35 0.2 1.5
v -2.35 0.2 2.5
v -2.5 0.2 2.5
v -2.3 0.15 1.5
v -2.3 0 1.5
v -2.3 0 2.5
v -2.3 0.15 2.5
v -2.5 0 1.5
vt 2.5 1.5
vt 2.35 1.5
vt 2.35 2.5
vt -1.5 0.15
vt -2.5 0.15
vt -1.5 0.2
vt 2.5 -2.5
vt 2.3 -2.5
vt 2.3 -1.5

usemtl Grey (Instance) (Instance)
usemap Grey (Instance) (Instance)
f 156/236/1 155/235/1 154/234/1
f 157/3/1 156/236/1 154/234/1
f 160/7/2 159/8/2 158/237/2
f 161/238/2 160/7/2 158/237/2
f 161/238/35 158/237/35 155/239/35
f 156/206/35 161/238/35 155/239/35
f 162/4/7 160/241/7 3/240/7
f 162/4/7 159/242/7 160/241/7
g struct_wall_base_half_11

v -2.5 0.2 -1.5
v -2.35 0.2 -1.5
v -2.35 0.2 -0.4999999
v -2.5 0.2 -0.4999999
v -2.3 0.15 -1.5
v -2.3 0 -1.5
v -2.3 0 -0.4999999
v -2.3 0.15 -0.4999999
v -2.5 0 -0.4999999
vt 2.35 -1.5
vt 2.35 -0.4999999
vt 2.5 -0.4999999
vt 1.5 0.15
vt 0.4999999 0.15
vt 1.5 0.2
vt 0.4999999 0.2
vt 2.5 0.4999999
vt 2.3 0.4999999
vt 2.3 1.5

usemtl Grey (Instance) (Instance)
usemap Grey (Instance) (Instance)
f 165/244/1 164/243/1 163/4/1
f 166/245/1 165/244/1 163/4/1
f 169/90/2 168/91/2 167/246/2
f 170/247/2 169/90/2 167/246/2
f 170/247/35 167/246/35 164/248/35
f 165/249/35 170/247/35 164/248/35
f 4/234/7 169/251/7 171/250/7
f 4/234/7 168/252/7 169/251/7
g struct_wall_base_half_12

v 1.5 0.2 -1.5
v 1.5 0.2 -1.35
v -2.5 0.2 -1.35
v 1.5 0.15 -1.3
v 1.5 0 -1.3
v -2.5 0 -1.3
v -2.5 0.15 -1.3
vn 0 0.7071 0.7071
vt -1.5 -1.35
vt 2.5 -1.35
vt -1.5 -1.3
vt 2.5 -1.3
vt 2.5 1.3
vt -1.5 1.5
vt -1.5 1.3

usemtl Grey (Instance) (Instance)
usemap Grey (Instance) (Instance)
f 174/254/1 173/253/1 172/1/1
f 163/4/1 174/254/1 172/1/1
f 177/7/9 176/91/9 175/246/9
f 178/238/9 177/7/9 175/246/9
f 178/256/36 175/255/36 173/253/36
f 174/254/36 178/256/36 173/253/36
f 1/258/7 177/257/7 4/234/7
f 1/258/7 176/259/7 177/257/7
g struct_wall_base_half_13

v -2.5 0.2 2.5
v -2.5 0.2 2.35
v 1.5 0.2 2.35
v 1.5 0.2 2.5
v -2.5 0.15 2.3
v -2.5 0 2.3
v 1.5 0 2.3
v 1.5 0.15 2.3
v 1.5 0 2.5
v -2.5 0 2.5
vn 6.181664E-08 0.7071 -0.7071
vt 2.5 2.5
vt 2.5 2.35
vt -1.5 2.35
vt -1.5 2.5
vt 2.5 0.15
vt -1.5 -2.5
vt -1.5 -2.3
vt 2.5 -2.5
vt 2.5 -2.3

usemtl Grey (Instance) (Instance)
usemap Grey (Instance) (Instance)
f 181/262/1 180/261/1 179/260/1
f 182/263/1 181/262/1 179/260/1
f 185/8/3 184/10/3 183/264/3
f 186/237/3 185/8/3 183/264/3
f 186/237/37 183/264/37 180/218/37
f 181/239/37 186/237/37 180/218/37
f 188/267/7 185/266/7 187/265/7
f 188/267/7 184/268/7 185/266/7
g struct_wall_base_half_14

v 1.5 0.2 2.5
v 1.35 0.2 2.5
v 1.35 0.2 -1.5
v 1.5 0.2 -1.5
v 1.3 0.15 2.5
v 1.3 0 2.5
v 1.3 0 -1.5
v 1.3 0.15 -1.5
v 1.5 0 -1.5
v 1.5 0 2.5
vn -0.7071 0.7071 -5.960464E-08
vt -1.5 2.5
vt -1.35 2.5
vt -1.35 -1.5
vt -1.5 -1.5
vt 2.5 0.15
vt 2.5 0.2
vt -1.5 1.5
vt -1.3 1.5
vt -1.5 -2.5
vt -1.3 -2.5

usemtl Grey (Instance) (Instance)
usemap Grey (Instance) (Instance)
f 191/271/1 190/270/1 189/269/1
f 192/272/1 191/271/1 189/269/1
f 195/82/10 194/94/10 193/273/10
f 196/225/10 195/82/10 193/273/10
f 196/225/38 193/273/38 190/274/38
f 191/227/38 196/225/38 190/274/38
f 198/277/7 195/276/7 197/275/7
f 198/277/7 194/278/7 195/276/7
g struct_wall_straight_top_41

v 1.1 1.8 -1.5
v 1.1 2 -1.5
v 1.1 1.8 2.5
v 1.1 2 2.5
v 1.5 1.8 -1.5
v 1.5 2 -1.5
v 1.5 1.8 2.5
v 1.5 2 2.5
vn -1 0 -1.192093E-07
vn 4.768372E-07 0 -4.000001
vn 1 0 1.192093E-07
vn -4.768372E-07 0 4.000001
vt -1.5 1.8
vt -1.5 2
vt 2.5 1.8
vt 2.5 2
vt -1.500001 1.8
vt -1.500001 2
vt -1.1 1.8
vt -1.1 2
vt -2.5 1.8
vt -2.5 2
vt 1.5 1.8
vt 1.5 2
vt -1.500001 1.5
vt -1.1 1.5
vt -1.5 -2.5
vt -1.1 -2.5
vt 1.1 1.8
vt 1.1 2
vt 1.5 1.8
vt 1.5 2
vt -1.5 2.5
vt -1.1 2.5
vt -1.1 -1.5
vt -1.500001 -1.5

usemtl Grey (Instance) (Instance)
usemap Grey (Instance) (Instance)
f 201/281/39 200/280/39 199/279/39
f 201/281/39 202/282/39 200/280/39
f 199/285/40 204/284/40 203/283/40
f 199/285/40 200/286/40 204/284/40
f 203/289/41 206/288/41 205/287/41
f 203/289/41 204/290/41 206/288/41
f 205/293/7 199/292/7 203/291/7
f 205/293/7 201/294/7 199/292/7
f 205/297/42 202/296/42 201/295/42
f 205/297/42 206/298/42 202/296/42
f 200/301/1 202/300/1 206/299/1
f 204/302/1 200/301/1 206/299/1
g struct_wall_straight_top_42

v 1.5 1.8 2.1
v 1.5 2 2.1
v -2.5 1.8 2.1
v -2.5 2 2.1
v 1.5 1.8 2.5
v 1.5 2 2.5
v -2.5 1.8 2.5
v -2.5 2 2.5
vn 0 0 -1
vn 4 0 0
vn -4 0 0
vt -1.5 1.8
vt 2.5 1.8
vt -2.5 1.8
vt -2.1 1.8
vt -2.1 2
vt 1.5 1.8
vt -1.5 -2.5
vt -1.5 -2.1
vt 2.5 -2.1
vt 2.1 1.8
vt 2.1 2
vt 2.5 2.1
vt -1.5 2.1

usemtl Grey (Instance) (Instance)
usemap Grey (Instance) (Instance)
f 209/304/43 208/6/43 207/303/43
f 209/304/43 210/9/43 208/6/43
f 207/306/44 212/5/44 211/305/44
f 207/306/44 208/307/44 212/5/44
f 211/308/9 214/5/9 213/305/9
f 211/308/9 212/89/9 214/5/9
f 213/240/7 207/310/7 211/309/7
f 213/240/7 209/311/7 207/310/7
f 213/304/45 210/313/45 209/312/45
f 213/304/45 214/9/45 210/313/45
f 208/315/1 210/314/1 214/3/1
f 212/2/1 208/315/1 214/3/1
g struct_wall_straight_top_43

v -2.1 1.8 2.5
v -2.1 2 2.5
v -2.1 1.8 -1.5
v -2.1 2 -1.5
v -2.5 1.8 2.5
v -2.5 2 2.5
v -2.5 1.8 -1.5
v -2.5 2 -1.5
vn 1 0 -1.192093E-07
vn 4.768372E-07 0 4
vn -1 0 1.192093E-07
vn -4.768372E-07 0 -4
vt -2.5 1.8
vt -2.5 2
vt 1.5 1.8
vt 1.5 2
vt -1.5 1.8
vt 2.5 1.8
vt 2.5 -2.5
vt 2.1 -2.5
vt 2.5 1.5
vt 2.1 1.5
vt 2.1 1.8
vt 2.1 2
vt 2.5 -1.5
vt 2.1 -1.5
vt 2.1 2.5
vt 2.5 2.5

usemtl Grey (Instance) (Instance)
usemap Grey (Instance) (Instance)
f 217/318/46 216/317/46 215/316/46
f 217/318/46 218/319/46 216/317/46
f 215/306/47 220/5/47 219/305/47
f 215/306/47 216/307/47 220/5/47
f 219/321/48 222/92/48 221/320/48
f 219/321/48 220/93/48 222/92/48
f 221/324/7 215/323/7 219/322/7
f 221/324/7 217/325/7 215/323/7
f 221/281/49 218/327/49 217/326/49
f 221/281/49 222/282/49 218/327/49
f 216/330/1 218/329/1 222/328/1
f 220/331/1 216/330/1 222/328/1
g struct_wall_straight_top_44

v -2.5 1.8 -1.1
v -2.5 2 -1.1
v 1.5 1.8 -1.1
v 1.5 2 -1.1
v -2.5 1.8 -1.5
v -2.5 2 -1.5
v 1.5 1.8 -1.5
v 1.5 2 -1.5
vt -1.1 1.8
vt -1.1 2
vt 2.5 1.1
vt -1.5 1.1
vt 1.1 1.8
vt 1.1 2
vt -1.5 -1.1
vt 2.5 -1.1

usemtl Grey (Instance) (Instance)
usemap Grey (Instance) (Instance)
f 225/308/9 224/5/9 223/305/9
f 225/308/9 226/89/9 224/5/9
f 223/332/45 228/6/45 227/303/45
f 223/332/45 224/333/45 228/6/45
f 227/304/43 230/6/43 229/303/43
f 227/304/43 228/9/43 230/6/43
f 229/258/7 223/334/7 227/234/7
f 229/258/7 225/335/7 223/334/7
f 229/308/44 226/337/44 225/336/44
f 229/308/44 230/89/44 226/337/44
f 224/339/1 226/338/1 230/1/1
f 228/4/1 224/339/1 230/1/1
