# Made using Asset Forge (www.assetforge.io) version 1.3 

mtllib staricaseBottom.mtl 

g struct_floor_main_half_0

v 2.5 0 -2.5
v 2.5 0 1.5
v -1.5 0 1.5
v -1.5 0 -2.5
vn 0 1 0
vt -2.5 -2.5
vt -2.5 1.5
vt 1.5 1.5
vt 1.5 -2.5

usemtl Dark_Grey (Instance)
usemap Dark_Grey (Instance)
f 3/3/1 2/2/1 1/1/1
f 4/4/1 3/3/1 1/1/1
g struct_wall_big_door_lower_4

v 2.5 1 -0.09999996
v 2.35 1 -0.09999999
v 2.5 0.494793 -0.09999996
v 2.35 1 0.2000001
v 2.3 1 0.1500001
v 2.3 1 -0.04999998
v 2.5 1 0.2000001
v 2.5 1 0.09031808
v 2.3 0 0.1500001
v 2.3 0 -0.04999998
v 2.35 0 0.2000001
v 2.5 0 0.2000001
v 2.5 0.508784 0.2000001
v 2.5 0 0.01360506
v 2.5 0 -0.09999996
v 2.35 0 -0.09999999
v 2.5 0.494793 0.2000001
v 2.3 0 -1.15
v 2.3 0 -0.95
v 2.35 0 -0.9000001
v 2.5 0 -1.086395
v 2.5 0 -1.2
v 2.35 0 -1.2
v 2.35 1 -1.2
v 2.3 1 -1.15
v 2.5 1 -0.9
v 2.35 1 -0.9000001
v 2.5 1 -1.009682
v 2.3 1 -0.95
v 2.5 1 -1.2
v 2.5 0.494793 -1.2
v 2.5 0 -0.9
v 2.5 0.508785 -0.9
v 2.5 0.508785 -1.2
v 2.35 1 0.5000001
v 2.35 0 0.5000001
v 2.5 1 0.3903181
v 2.5 1 0.5000001
v 2.5 0 0.5000001
v 2.5 0 0.3863951
v 2.5 0.494794 0.5000001
v 2.5 0 -1.386395
v 2.5 0 -1.5
v 2.35 0 -1.5
v 2.35 1 -1.5
v 2.5 0.508785 -1.5
v 2.5 1 -1.5
v 2.5 1 -1.390318
vn 1.192093E-07 0 -1
vn -1 0 -1.192093E-07
vn -0.7071001 0 0.7071
vn -1.192093E-07 0 1
vn 0 -1 0
vn -0.7071 0 -0.7071001
vt -2.5 1
vt -2.35 1
vt -2.5 0.494793
vt -2.35 0.2000001
vt -2.3 0.1500001
vt -2.3 -0.04999997
vt -2.5 0.2000001
vt -2.35 -0.09999997
vt -2.5 0.09031807
vt 0.1500001 0
vt -0.04999997 0
vt 0.1500001 1
vt -0.04999997 1
vt 0.2000001 0
vt 0.2000001 1
vt 2.5 0
vt 2.35 0
vt 2.5 0.508784
vt -2.3 0.04999997
vt -2.3 -0.1500001
vt -2.35 -0.2000001
vt -2.5 -0.01360506
vt -2.5 0.09999996
vt -2.35 0.09999997
vt -2.3 1
vt -2.3 0
vt -2.35 0
vt -2.5 -0.2000001
vt 2.35 1
vt 2.5 1
vt -2.5 -0.09999996
vt -2.5 0
vt -2.35 1
vt -2.35 0
vt -2.3 1.15
vt -2.3 0.95
vt -2.35 0.9
vt -2.5 1.086395
vt -2.5 1.2
vt -2.35 1.2
vt -1.2 1
vt -1.15 1
vt -1.2 0
vt -1.15 0
vt -2.5 -0.9
vt -2.35 -0.9
vt -2.35 -1.2
vt -2.5 -1.009682
vt -2.3 -0.95
vt -2.3 -1.15
vt -2.5 1
vt -2.5 0.494793
vt 2.5 0
vt 2.35 0
vt 2.5 0.508785
vt -0.9 0
vt -0.95 0
vt -0.95 1
vt -0.9 1
vt -2.5 -1.2
vt 2.35 1
vt 2.5 1
vt -2.5 0
vt -2.5 0.9
vt 0.5000001 1
vt 0.5000001 0
vt -2.5 0.3903181
vt -2.5 0.5000001
vt -2.35 0.5000001
vt -2.35 -0.5000001
vt -2.5 -0.5000001
vt -2.5 -0.3863951
vt 2.5 0.494794
vt -2.5 1.386395
vt -2.5 1.5
vt -2.35 1.5
vt -1.5 0
vt -1.5 1
vt -2.5 0.508785
vt -2.5 -1.390318
vt -2.35 -1.5
vt -2.5 -1.5

usemtl Grey (Instance)
usemap Grey (Instance)
f 7/7/2 6/6/2 5/5/2
f 10/10/1 9/9/1 8/8/1
f 6/12/1 8/8/1 11/11/1
f 11/11/1 12/13/1 6/12/1
f 6/12/1 10/10/1 8/8/1
f 9/16/3 14/15/3 13/14/3
f 9/16/3 10/17/3 14/15/3
f 8/19/4 13/14/4 15/18/4
f 8/19/4 9/16/4 13/14/4
f 17/22/5 15/21/5 16/20/5
f 15/25/6 13/24/6 14/23/6
f 20/28/6 19/27/6 18/26/6
f 15/25/6 14/23/6 20/28/6
f 14/30/7 10/29/7 6/6/7
f 20/31/7 14/30/7 6/6/7
f 16/32/6 15/25/6 20/28/6
f 20/28/6 18/26/6 16/32/6
f 11/34/5 8/33/5 15/21/5
f 15/21/5 17/22/5 11/34/5
f 12/13/1 5/35/1 6/12/1
f 19/36/2 20/31/2 6/6/2
f 6/6/2 7/7/2 19/36/2
f 21/7/2 8/37/2 11/5/2
f 16/36/2 15/38/2 8/37/2
f 8/37/2 21/7/2 16/36/2
f 24/41/6 23/40/6 22/39/6
f 27/44/6 26/43/6 25/42/6
f 24/41/6 22/39/6 27/44/6
f 27/47/7 29/46/7 28/45/7
f 27/47/7 22/48/7 29/46/7
f 28/51/1 31/50/1 30/49/1
f 30/49/1 32/52/1 28/51/1
f 29/54/1 33/53/1 31/50/1
f 28/51/1 29/54/1 31/50/1
f 35/56/2 28/6/2 34/55/2
f 37/59/5 24/58/5 36/57/5
f 33/62/4 23/61/4 24/60/4
f 31/63/4 33/62/4 24/60/4
f 33/62/3 22/48/3 23/61/3
f 33/62/3 29/46/3 22/48/3
f 32/52/1 34/64/1 28/51/1
f 30/66/5 31/65/5 24/58/5
f 24/58/5 37/59/5 30/66/5
f 26/67/2 27/31/2 28/6/2
f 28/6/2 35/56/2 26/67/2
f 36/68/6 24/41/6 27/44/6
f 27/44/6 25/42/6 36/68/6
f 38/59/5 27/58/5 26/57/5
f 34/66/5 28/65/5 27/58/5
f 27/58/5 38/59/5 34/66/5

usemtl Dark_Grey (Instance) (Instance)
usemap Dark_Grey (Instance) (Instance)
f 15/18/3 39/69/3 8/19/3
f 15/18/3 40/70/3 39/69/3
f 8/8/1 41/71/1 11/11/1
f 8/8/1 39/73/1 42/72/1
f 42/72/1 41/71/1 8/8/1
f 44/76/6 43/75/6 40/74/6
f 45/77/5 39/33/5 40/21/5
f 40/21/5 43/20/5 45/77/5
f 45/77/5 42/34/5 39/33/5
f 44/76/6 40/74/6 15/25/6
f 15/25/6 16/32/6 44/76/6
f 48/80/6 47/79/6 46/78/6
f 27/44/6 48/80/6 46/78/6
f 46/78/6 26/43/6 27/44/6
f 28/45/3 48/81/3 27/47/3
f 28/45/3 49/82/3 48/81/3
f 48/31/2 50/83/2 47/67/2
f 48/31/2 49/6/2 51/55/2
f 51/55/2 50/83/2 48/31/2
f 34/64/1 52/84/1 28/51/1
f 51/86/1 49/85/1 28/51/1
f 28/51/1 52/84/1 51/86/1
g struct_wall_big_door_base_half_10

v 2.5 0 0.1500001
v 2.5 0 0.3294561
v 2.35 0.2 0.1500001
v 2.3 0.15 0.1500001
v 2.5 0.116354 0.1500001
v 2.5 0.2 0.1500001
v 2.5 0.2 0.5000001
v 2.35 0.2 0.5000001
v 2.5 0.2 0.2967841
v 2.3 0.15 0.5000001
v 2.3 0 0.5000001
v 2.5 0.098604 0.5000001
v 2.35 0.2 -1.5
v 2.3 0.15 -1.5
v 2.3 0 -1.5
v 2.5 0.120712 -1.5
v 2.5 0.2 -1.5
v 2.5 0.2 -1.15
v 2.35 0.2 -1.15
v 2.5 0.2 -1.275289
v 2.3 0.15 -1.15
v 2.5 0 -1.316739
v 2.5 0.139815 -1.15
v 2.5 0 -1.15
vn -0.7071 0.7071 -5.960464E-08
vt -2.5 -0.1500001
vt -2.5 -0.3294561
vt -2.35 0.2
vt -2.3 0.15
vt -2.5 0.116354
vt -2.5 0.2
vt -2.35 0.1500001
vt -2.5 0.2967841
vt -2.5 0.1500001
vt 0.5000001 0.2
vt 0.5000001 0.15
vt 0.1500001 0.15
vt 0.1500001 0.2
vt 2.3 0
vt 2.3 0.15
vt 2.35 0.2
vt -2.3 -0.5000001
vt 2.5 0.098604
vt 2.5 0.2
vt -2.35 0.2
vt -2.3 0.15
vt -2.3 0
vt -2.5 0.120712
vt -2.5 0.2
vt -2.5 -1.15
vt -2.35 -1.15
vt -2.5 -1.275289
vt -1.15 0.15
vt -1.5 0.15
vt -1.15 0.2
vt -1.5 0.2
vt 2.3 0
vt 2.3 0.15
vt 2.35 0.2
vt -2.3 1.5
vt -2.5 1.316739
vt 2.5 0.139815
vt -2.5 1.15
vt 2.5 0.2

usemtl Grey (Instance) (Instance)
usemap Grey (Instance) (Instance)
f 54/88/6 13/24/6 53/87/6
f 13/30/2 56/90/2 55/89/2
f 53/36/2 13/30/2 57/91/2
f 13/30/2 55/89/2 58/92/2
f 58/92/2 57/91/2 13/30/2
f 55/93/1 60/73/1 59/72/1
f 59/72/1 61/94/1 55/93/1
f 58/95/1 55/93/1 61/94/1
f 56/98/8 62/97/8 60/96/8
f 55/99/8 56/98/8 60/96/8
f 60/102/5 62/101/5 63/100/5
f 13/14/3 63/70/3 62/97/3
f 56/98/3 13/14/3 62/97/3
f 43/75/6 63/103/6 13/24/6
f 13/24/6 54/88/6 43/75/6
f 43/20/5 64/104/5 63/100/5
f 59/105/5 60/102/5 63/100/5
f 63/100/5 64/104/5 59/105/5
f 67/108/2 66/107/2 65/106/2
f 47/67/2 67/108/2 68/109/2
f 67/108/2 65/106/2 69/110/2
f 69/110/2 68/109/2 67/108/2
f 65/85/1 71/112/1 70/111/1
f 70/111/1 72/113/1 65/85/1
f 69/86/1 65/85/1 72/113/1
f 67/81/3 22/48/3 73/114/3
f 66/115/3 67/81/3 73/114/3
f 66/115/8 73/114/8 71/116/8
f 65/117/8 66/115/8 71/116/8
f 71/120/5 73/119/5 22/118/5
f 74/122/6 67/121/6 47/79/6
f 76/57/5 75/123/5 22/118/5
f 76/124/6 22/39/6 67/121/6
f 67/121/6 74/122/6 76/124/6
f 70/125/5 71/120/5 22/118/5
f 22/118/5 75/123/5 70/125/5
g struct_wall_big_door_upper_11

v 2.5 1 -1.311324
v 2.5 1.569447 -1.5
v 2.5 2 -1.5
v 2.35 2 -1.5
v 2.35 1.35 0.106218
v 2.35 2 0.5000001
v 2.35 1.606218 -0.15
v 2.35 1.7 -0.5
v 2.35 1.606218 -0.8500001
v 2.35 1.35 -1.106218
v 2.5 2 -0.548961
v 2.5 1.414356 0.5000001
v 2.5 1 0.3113241
v 2.5 2 0.5000001
v 2.5 1.606218 -0.8500001
v 2.5 1.658747 -0.653958
v 2.5 1.35 -1.106218
v 2.5 1.497819 -0.958399
v 2.5 1.212359 -1.143099
v 2.5 1.35 0.1062181
v 2.5 1.134806 0.1638791
v 2.5 1.606218 -0.15
v 2.5 1.457315 -0.001096964
v 2.5 1.7 -0.4999999
v 2.5 1.647359 -0.303542
v 2.5 1.4 -0.4999999
v 2.35 1.4 -0.5
v 2.5 1.368358 -0.38191
v 2.5 1.34641 -0.7
v 2.35 1.34641 -0.7
v 2.5 1.377998 -0.582112
v 2.5 1.2 -0.84641
v 2.35 1.2 -0.84641
v 2.5 1.287681 -0.758729
v 2.5 1.12321 -0.866986
v 2.5 1 -1.088675
v 2.3 1 -1.148236
v 2.3 1 -0.951764
v 2.3 1 0.1482361
v 2.3 1.324118 0.06138903
v 2.3 1.561389 -0.175882
v 2.3 1.648236 -0.5
v 2.3 1.561389 -0.824118
v 2.3 1.324118 -1.061389
v 2.3 1 -0.04823598
v 2.5 1 0.01132506
v 2.35 1.2 -0.15359
v 2.3 1.225882 -0.108761
v 2.35 1.34641 -0.3
v 2.3 1.391239 -0.274118
v 2.5 1.2 -0.15359
v 2.5 1.0758 -0.1203099
v 2.3 1.225882 -0.891239
v 2.3 1.391239 -0.7258819
v 2.3 1.451764 -0.5
v 2.5 1.34641 -0.3
v 2.5 1.25828 -0.2118689
vn -2.980232E-08 -0.9659 0.2588
vn -5.960464E-08 -0.7071 0.7071
vn -1.192093E-07 -0.2588 0.9659001
vn 1.192093E-07 -0.2588 -0.9659001
vn 5.960464E-08 -0.7071 -0.7071
vn 2.980232E-08 -0.9659 -0.2588
vn 5.960464E-08 0.7071 -0.7071
vn 2.980232E-08 0.9659 -0.2588
vn -2.980232E-08 0.9659 0.2588
vn -5.960464E-08 0.7071 0.7071
vn -1.192093E-07 0.2588 0.9659001
vn -0.7071001 0.183 0.683
vn -0.7071001 0.5 0.5
vn -0.7071 0.683 0.183
vn -0.7071 0.683 -0.1830001
vn -0.7071 0.5 -0.5000001
vn -0.7071 -0.183 -0.6830001
vn -0.7071 -0.5 -0.5000001
vn -0.7071 0.183 -0.6830001
vn 1.192093E-07 0.2588 -0.9659001
vn -0.7071001 -0.183 0.683
vn -0.7071001 -0.5 0.5
vn -0.7071 -0.683 0.183
vn -0.7071 -0.683 -0.1830001
vt -2.5 1.311324
vt -2.5 1.569447
vt -2.5 2
vt -2.35 2
vt 0.1062181 1.35
vt 0.5000001 2
vt -0.15 1.606218
vt -1.5 2
vt -0.5 1.7
vt -0.8500001 1.606218
vt -1.106218 1.35
vt -2.5 -0.548961
vt 2.35 2
vt 2.5 1.414356
vt -2.5 -0.3113241
vt 2.5 2
vt -2.5 0.8500001
vt -2.35 0.8500001
vt -2.5 0.653958
vt -2.5 1.106218
vt -2.35 1.106218
vt -2.5 0.9583991
vt 2.5 1.212359
vt -2.5 1.35
vt -2.35 1.35
vt -2.5 1.134806
vt -2.5 0.15
vt -2.35 0.15
vt -2.5 0.00109694
vt -2.5 0.5
vt -2.35 0.5
vt -2.5 0.303542
vt 2.35 1.35
vt 2.5 1.35
vt 2.5 1.606218
vt 2.5 1.497819
vt -2.35 -0.1062181
vt -2.5 -0.1062181
vt -2.5 0.38191
vt -2.5 0.7
vt -2.35 0.7
vt -2.5 0.582112
vt -2.5 0.84641
vt -2.35 0.84641
vt -2.5 0.758729
vt 2.5 1.12321
vt -2.5 1.088675
vt -2.3 1.148236
vt -2.3 0.951764
vt -2.5 -0.8500001
vt -2.35 -0.8500001
vt -2.35 -1.106218
vt -2.35 1.35
vt -2.5 1.497819
vt -2.5 1.606218
vt -2.5 -0.9583991
vt -2.5 -1.106218
vt -2.5 -0.5
vt -2.35 -0.5
vt -2.5 -0.653958
vt -2.5 -0.15
vt -2.35 -0.15
vt -2.5 -0.303542
vt -2.5 0.1062181
vt -2.35 0.1062181
vt -2.5 -0.00109694
vt 2.35 1.35
vt 2.5 1.134806
vt 2.5 1.35
vt 0.1482361 1
vt 0.06138904 1.324118
vt -0.175882 1.561389
vt -0.5 1.648236
vt -0.8241181 1.561389
vt -1.061389 1.324118
vt -2.3 0.04823597
vt -2.3 -0.1482361
vt -2.5 -0.01132506
vt -0.15359 1.2
vt -0.108761 1.225882
vt -0.09999997 1
vt -0.04823597 1
vt -0.3 1.34641
vt -0.274118 1.391239
vt -2.5 1.2
vt -2.35 1.2
vt -2.5 1.0758
vt -0.891239 1.225882
vt -0.951764 1
vt -1.148236 1
vt -0.7258821 1.391239
vt -0.5 1.451764
vt -2.5 1.35
vt -2.5 1.212359
vt -0.84641 1.2
vt -0.7 1.34641
vt -0.5 1.4
vt -2.5 0.3
vt -2.35 0.3
vt -2.5 0.211869
vt 2.35 1.2
vt 2.35 1.34641
vt 2.5 1.34641
vt 2.5 1.287681
vt 2.5 1.2
vt -2.35 0.15359
vt -2.5 0.1535899
vt -2.5 1.25828
vt -2.35 1.34641

usemtl Dark_Grey (Instance) (Instance)
usemap Dark_Grey (Instance) (Instance)
f 49/80/6 51/79/6 77/126/6
f 28/44/6 49/80/6 77/126/6
f 77/126/6 34/43/6 28/44/6
f 49/6/2 78/127/2 51/55/2
f 49/6/2 80/129/2 79/128/2
f 79/128/2 78/127/2 49/6/2
f 81/130/3 8/19/3 39/69/3
f 83/132/3 81/130/3 82/131/3
f 84/134/3 82/131/3 80/133/3
f 80/133/3 85/135/3 84/134/3
f 80/133/3 86/136/3 85/135/3
f 49/82/3 28/45/3 86/136/3
f 80/133/3 49/82/3 86/136/3
f 84/134/3 83/132/3 82/131/3
f 81/130/3 39/69/3 82/131/3
f 79/86/1 80/85/1 82/73/1
f 82/73/1 87/137/1 79/86/1
f 88/139/5 82/138/5 39/33/5
f 39/33/5 42/34/5 88/139/5
f 89/140/6 42/75/6 39/74/6
f 89/140/6 39/74/6 8/25/6
f 8/25/6 11/32/6 89/140/6
f 90/72/1 87/137/1 82/73/1
f 88/139/5 90/141/5 82/138/5

usemtl Grey (Instance) (Instance)
usemap Grey (Instance) (Instance)
f 92/144/9 85/143/9 91/142/9
f 94/147/10 86/146/10 93/145/10
f 95/148/11 28/65/11 34/66/11
f 97/151/12 81/150/12 96/149/12
f 99/154/13 83/153/13 98/152/13
f 101/157/14 84/156/14 100/155/14
f 98/152/14 83/153/14 84/156/14
f 84/156/14 101/157/14 98/152/14
f 11/5/12 8/37/12 81/150/12
f 81/150/12 97/151/12 11/5/12
f 93/159/11 86/158/11 28/65/11
f 28/65/11 95/148/11 93/159/11
f 91/142/10 85/143/10 86/146/10
f 86/158/10 94/161/10 91/160/10
f 96/163/13 81/162/13 83/153/13
f 83/153/13 99/154/13 96/163/13
f 100/155/9 84/156/9 85/143/9
f 85/143/9 92/144/9 100/155/9
f 104/164/14 103/156/14 102/155/14
f 107/167/9 106/166/9 105/165/9
f 110/170/10 109/169/10 108/168/10
f 111/171/11 31/65/11 30/66/11
f 31/41/6 28/44/6 34/43/6
f 34/43/6 112/172/6 31/41/6
f 31/41/6 113/173/6 28/44/6
f 31/41/6 114/174/6 113/173/6
f 86/177/15 85/176/15 91/175/15
f 91/180/15 94/179/15 86/178/15
f 93/182/15 86/177/15 94/181/15
f 85/176/16 84/184/16 100/183/16
f 100/183/16 92/185/16 85/176/16
f 91/175/16 85/176/16 92/185/16
f 84/184/17 83/187/17 98/186/17
f 98/186/17 101/188/17 84/184/17
f 100/183/17 84/184/17 101/188/17
f 83/187/18 81/190/18 96/189/18
f 96/189/18 99/191/18 83/187/18
f 98/186/18 83/187/18 99/191/18
f 81/192/19 8/33/19 11/34/19
f 11/34/19 97/193/19 81/192/19
f 96/194/19 81/192/19 97/193/19
f 116/196/20 115/195/20 8/19/20
f 81/130/20 116/196/20 8/19/20
f 117/197/21 116/196/21 81/130/21
f 83/132/21 117/197/21 81/130/21
f 118/198/22 117/197/22 83/132/22
f 84/134/22 118/198/22 83/132/22
f 119/199/23 118/198/23 84/134/23
f 85/135/23 119/199/23 84/134/23
f 120/200/24 119/199/24 85/135/24
f 86/136/24 120/200/24 85/135/24
f 8/25/6 115/202/6 121/201/6
f 8/25/6 6/28/6 5/27/6
f 5/27/6 122/203/6 8/25/6
f 8/25/6 121/201/6 6/28/6
f 6/206/25 124/205/25 123/204/25
f 6/206/25 121/207/25 124/205/25
f 123/204/26 126/209/26 125/208/26
f 123/204/26 124/205/26 126/209/26
f 128/212/12 123/211/12 127/210/12
f 113/215/3 114/214/3 129/213/3
f 120/200/3 129/213/3 130/216/3
f 119/199/3 130/216/3 131/217/3
f 118/198/3 119/199/3 131/217/3
f 131/217/3 117/197/3 118/198/3
f 126/209/3 116/196/3 117/197/3
f 126/209/3 124/205/3 116/196/3
f 124/205/3 121/207/3 115/195/3
f 124/205/3 115/195/3 116/196/3
f 131/217/3 126/209/3 117/197/3
f 119/199/3 120/200/3 130/216/3
f 120/200/3 113/215/3 129/213/3
f 113/215/27 120/200/27 86/136/27
f 28/45/27 113/215/27 86/136/27
f 28/6/28 86/178/28 93/218/28
f 93/218/28 95/219/28 28/6/28
f 34/55/28 28/6/28 95/219/28
f 109/220/29 114/214/29 31/63/29
f 109/220/29 129/213/29 114/214/29
f 106/221/30 129/213/30 109/220/30
f 106/221/30 130/216/30 129/213/30
f 103/222/31 130/216/31 106/221/31
f 103/222/31 131/217/31 130/216/31
f 133/225/13 125/224/13 132/223/13
f 125/208/32 131/217/32 103/222/32
f 125/208/32 126/209/32 131/217/32
f 132/223/14 125/224/14 103/156/14
f 103/156/14 104/164/14 132/223/14
f 122/203/6 11/32/6 8/25/6
f 102/155/9 103/156/9 106/166/9
f 106/166/9 107/167/9 102/155/9
f 105/228/10 106/227/10 109/226/10
f 109/226/10 110/229/10 105/228/10
f 108/230/11 109/226/11 31/65/11
f 31/65/11 111/171/11 108/230/11
f 112/172/6 30/68/6 31/41/6
f 127/232/13 123/231/13 125/224/13
f 125/234/13 133/233/13 127/210/13
f 5/5/12 6/6/12 123/211/12
f 123/211/12 128/212/12 5/5/12
g struct_large_straight_steps_55

v 1.5 0 -1.5
v 1.5 0.2 -1.5
v 1.3 0.2 -1.5
v 0.4999999 0 -1.5
v 1.1 0.4 -1.5
v 1.1 0.6 -1.5
v 0.9 0.6 -1.5
v 0.9 0.8 -1.5
v 0.6999999 0.8 -1.5
v 0.6999999 1 -1.5
v 0.4999999 1 -1.5
v 1.3 0.4 -1.5
v 0.7000002 0.8 0.5000002
v 0.7000002 1 0.5000002
v 1.3 0.2 0.5000002
v 1.5 0.2 0.5000002
v 1.5 0 0.5000002
v 1.1 0.4 0.5000002
v 0.5000002 0 0.5000002
v 0.5000002 1 0.5000002
v 0.9000002 0.8 0.5000002
v 0.9000002 0.6 0.5000002
v 1.1 0.6 0.5000002
v 1.3 0.4 0.5000002
vn -2.384186E-07 0 -2
vn 1 0 -1.192093E-07
vn 2.384186E-07 0 2
vn -1 0 1.192093E-07
vt -1.5 0
vt -1.5 0.2
vt -1.3 0.2
vt -0.4999999 0
vt -1.1 0.4
vt -1.1 0.6
vt -0.9 0.6
vt -0.9 0.8
vt -0.6999999 0.8
vt -0.6999999 1
vt -0.4999999 1
vt -1.3 0.4
vt -0.5000003 0.8
vt -0.5000003 1
vt 1.5 0.8
vt 1.5 1
vt 1.3 0.2
vt 1.5 0.2
vt 1.5 0
vt 1.1 0.4
vt 0.5000002 0
vt 0.5000002 1
vt 0.7000002 0.8
vt 0.9000002 0.8
vt 0.9000002 0.6
vt 0.7000002 1
vt 1.1 0.6
vt 1.3 0.4
vt -0.9 -1.5
vt -0.9000002 0.5000002
vt -0.7000002 0.5000003
vt -0.6999999 -1.5
vt -0.5000002 0.6
vt -0.5000002 0.8
vt 1.5 0.6
vt -1.1 -1.5
vt -1.1 0.5000002
vt -0.5000002 0.4
vt 1.5 0.4
vt -1.3 -1.5
vt -1.3 0.5000002
vt -0.5000002 0.2
vt -0.5000002 0.4
vt 1.5 0.2
vt -1.5 -1.5
vt -1.5 0.5000002
vt -0.5000002 0
vt 1.5 0
vt -1.5 1.5
vt -0.4999999 1.5
vt -0.5000002 -0.5000003
vt -1.5 -0.5000002
vt -1.5 1
vt 0.5000003 0
vt 0.5000003 1
vt -0.5000002 0.5000003
vt -0.4999999 -1.5

usemtl Dark_Grey (Instance) (Instance)
usemap Dark_Grey (Instance) (Instance)
f 136/237/33 135/236/33 134/235/33
f 138/239/33 136/237/33 137/238/33
f 140/241/33 139/240/33 138/239/33
f 142/243/33 141/242/33 140/241/33
f 144/245/33 143/244/33 142/243/33
f 137/238/33 144/245/33 142/243/33
f 142/243/33 140/241/33 137/238/33
f 140/241/33 138/239/33 137/238/33
f 138/239/33 145/246/33 136/237/33
f 136/237/33 134/235/33 137/238/33
f 142/249/34 147/248/34 146/247/34
f 142/249/34 143/250/34 147/248/34
f 150/253/35 149/252/35 148/251/35
f 152/255/35 148/251/35 151/254/35
f 146/257/35 153/256/35 152/255/35
f 155/259/35 154/258/35 146/257/35
f 146/257/35 147/260/35 153/256/35
f 152/255/35 155/259/35 146/257/35
f 152/255/35 151/254/35 155/259/35
f 151/254/35 156/261/35 155/259/35
f 152/255/35 150/253/35 148/251/35
f 148/251/35 157/262/35 151/254/35
f 146/265/1 154/264/1 141/263/1
f 142/266/1 146/265/1 141/263/1
f 140/269/34 154/268/34 155/267/34
f 140/269/34 141/249/34 154/268/34
f 155/264/1 156/271/1 139/270/1
f 140/263/1 155/264/1 139/270/1
f 138/273/34 156/267/34 151/272/34
f 138/273/34 139/269/34 156/267/34
f 151/271/1 157/275/1 145/274/1
f 138/270/1 151/271/1 145/274/1
f 136/278/34 157/277/34 148/276/34
f 136/278/34 145/273/34 157/277/34
f 148/275/1 149/280/1 135/279/1
f 136/274/1 148/275/1 135/279/1
f 134/282/34 149/276/34 150/281/34
f 134/282/34 135/278/34 149/276/34
f 152/285/6 137/284/6 134/283/6
f 150/286/6 152/285/6 134/283/6
f 152/288/36 144/287/36 137/235/36
f 152/288/36 153/289/36 144/287/36
f 153/290/1 147/265/1 143/266/1
f 144/291/1 153/290/1 143/266/1
g struct_large_straight_steps_56

v 0.5000001 1 -1.5
v 0.5000001 1.2 -1.5
v 0.3 1.2 -1.5
v -0.5000001 1 -1.5
v 0.1 1.4 -1.5
v 0.1 1.6 -1.5
v -0.1 1.6 -1.5
v -0.1 1.8 -1.5
v -0.3 1.8 -1.5
v -0.3 2 -1.5
v -0.5000001 2 -1.5
v 0.3 1.4 -1.5
v -0.2999998 1.8 0.5000002
v -0.2999998 2 0.5000002
v 0.3000003 1.2 0.5000002
v 0.5000003 1.2 0.5000002
v 0.5000003 1 0.5000002
v 0.1000003 1.4 0.5000002
v -0.4999998 1 0.5000002
v -0.4999998 2 0.5000002
v -0.09999978 1.8 0.5000002
v -0.09999978 1.6 0.5000002
v 0.1000003 1.6 0.5000002
v 0.3000003 1.4 0.5000002
vt -0.5000001 1
vt -0.5000001 1.2
vt -0.3 1.2
vt 0.5000001 1
vt -0.1 1.4
vt -0.1 1.6
vt 0.1 1.6
vt 0.1 1.8
vt 0.3 1.8
vt 0.3 2
vt 0.5000001 2
vt -0.3 1.4
vt -0.5000003 1.8
vt -0.5000003 2
vt 1.5 1.8
vt 1.5 2
vt 0.3000003 1.2
vt 0.5000003 1.2
vt 0.1000003 1.4
vt -0.4999998 1
vt -0.4999998 2
vt -0.2999998 1.8
vt -0.09999978 1.8
vt -0.09999978 1.6
vt -0.2999998 2
vt 0.1000003 1.6
vt 0.3000003 1.4
vt 0.1 -1.5
vt 0.09999978 0.5000002
vt 0.2999998 0.5000003
vt 0.3 -1.5
vt -0.5000002 1.6
vt -0.5000002 1.8
vt 1.5 1.6
vt -0.1 -1.5
vt -0.1000003 0.5000002
vt -0.5000002 1.4
vt 1.5 1.4
vt -0.3 -1.5
vt -0.3000003 0.5000002
vt -0.5000002 1.2
vt -0.5000002 1.4
vt 1.5 1.2
vt -0.5000001 -1.5
vt -0.5000003 0.5000002
vt -0.5000002 1
vt -0.5000001 1.5
vt 0.5000001 1.5
vt 0.4999998 -0.5000003
vt -0.5000003 -0.5000002
vt -1.5 2
vt 0.5000003 2
vt 0.4999998 0.5000003
vt 0.5000001 -1.5

usemtl Dark_Grey (Instance) (Instance)
usemap Dark_Grey (Instance) (Instance)
f 160/294/33 159/293/33 158/292/33
f 162/296/33 160/294/33 161/295/33
f 164/298/33 163/297/33 162/296/33
f 166/300/33 165/299/33 164/298/33
f 168/302/33 167/301/33 166/300/33
f 161/295/33 168/302/33 166/300/33
f 166/300/33 164/298/33 161/295/33
f 164/298/33 162/296/33 161/295/33
f 162/296/33 169/303/33 160/294/33
f 160/294/33 158/292/33 161/295/33
f 166/306/34 171/305/34 170/304/34
f 166/306/34 167/307/34 171/305/34
f 174/289/35 173/309/35 172/308/35
f 176/311/35 172/308/35 175/310/35
f 170/313/35 177/312/35 176/311/35
f 179/315/35 178/314/35 170/313/35
f 170/313/35 171/316/35 177/312/35
f 176/311/35 179/315/35 170/313/35
f 176/311/35 175/310/35 179/315/35
f 175/310/35 180/317/35 179/315/35
f 176/311/35 174/289/35 172/308/35
f 172/308/35 181/318/35 175/310/35
f 170/321/1 178/320/1 165/319/1
f 166/322/1 170/321/1 165/319/1
f 164/325/34 178/324/34 179/323/34
f 164/325/34 165/306/34 178/324/34
f 179/320/1 180/327/1 163/326/1
f 164/319/1 179/320/1 163/326/1
f 162/329/34 180/323/34 175/328/34
f 162/329/34 163/325/34 180/323/34
f 175/327/1 181/331/1 169/330/1
f 162/326/1 175/327/1 169/330/1
f 160/334/34 181/333/34 172/332/34
f 160/334/34 169/329/34 181/333/34
f 172/331/1 173/336/1 159/335/1
f 160/330/1 172/331/1 159/335/1
f 158/250/34 173/332/34 174/337/34
f 158/250/34 159/334/34 173/332/34
f 176/340/6 161/339/6 158/338/6
f 174/341/6 176/340/6 158/338/6
f 176/289/36 168/342/36 161/287/36
f 176/289/36 177/343/36 168/342/36
f 177/344/1 171/321/1 167/322/1
f 168/345/1 177/344/1 167/322/1
g struct_block_normal_58

v -0.5000002 2 -2.5
v -0.5000002 2 -1.5
v -0.5000002 0 -2.5
v -0.5000002 0 -1.5
v 2.5 2 -2.5
v 2.5 0 -2.5
vn -3 0 4.768372E-07
vn 0 2 0
vn 3 0 -4.768372E-07
vn -1.192093E-07 0 -1
vn 0 -2 0
vn 1.192093E-07 0 1
vt -2.5 2
vt -1.5 2
vt -1.5 0
vt 0.5000003 -2.5
vt -2.5 -2.5
vt 0.5000002 -1.5
vt 1.5 2
vt 2.5 2
vt 1.5 0
vt 0.5000002 1.5
vt 0.5000003 2.5
vt -2.5 2.5
vt -0.5000002 2

usemtl Dark_Grey (Instance) (Instance)
usemap Dark_Grey (Instance) (Instance)
f 184/36/37 183/347/37 182/346/37
f 184/36/37 185/348/37 183/347/37
f 79/86/38 186/350/38 182/349/38
f 183/351/38 79/86/38 182/349/38
f 47/354/39 186/353/39 79/352/39
f 47/354/39 187/57/39 186/353/39
f 187/67/40 182/343/40 186/128/40
f 187/67/40 184/288/40 182/343/40
f 184/356/41 47/79/41 185/355/41
f 184/356/41 187/357/41 47/79/41
f 185/281/42 79/353/42 183/358/42
f 185/281/42 47/57/42 79/353/42
g struct_block_normal_59

v -0.5000002 2 0.5000002
v -0.5000002 2 1.5
v -0.5000002 0 0.5000002
v -0.5000002 0 1.5
v 2.5 2 0.4999997
v 2.5 2 1.5
v 2.5 0 1.5
v 2.5 0 0.4999997
vt 1.5 2
vt 0.5000003 0.5000001
vt -2.5 0.4999998
vt -2.5 1.5
vt 0.5000002 1.5
vt -1.5 2
vt -0.4999998 2
vt -1.5 0
vt -0.4999998 0
vt 0.5000002 -1.5
vt -2.5 -1.5
vt 0.5000003 -0.5000001
vt -2.5 -0.4999998

usemtl Dark_Grey (Instance) (Instance)
usemap Dark_Grey (Instance) (Instance)
f 190/70/37 189/359/37 188/131/37
f 190/70/37 191/253/37 189/359/37
f 193/362/38 192/361/38 188/360/38
f 189/363/38 193/362/38 188/360/38
f 194/366/39 192/365/39 193/364/39
f 194/366/39 195/367/39 192/365/39
f 195/67/40 188/343/40 192/128/40
f 195/67/40 190/288/40 188/343/40
f 190/370/41 194/369/41 191/368/41
f 190/370/41 195/371/41 194/369/41
f 191/281/42 193/353/42 189/358/42
f 191/281/42 194/57/42 193/353/42
g struct_block_normal_60

v -1.5 2 -2.5
v -1.5 2 1.5
v -1.5 1 -2.5
v -1.5 1 1.5
v -0.5000002 2 -2.5
v -0.4999997 2 1.5
v -0.4999997 1 1.5
v -0.5000002 1 -2.5
vn -4.768372E-07 0 -4
vn 4.768372E-07 0 4
vt 1.5 1
vt 1.5 -2.5
vt 0.5000002 -2.5
vt 0.4999997 1.5
vt 1.5 1.5
vt -1.5 2
vt -1.5 1
vt 0.5000002 2
vt 1.5 -1.5
vt 0.4999997 -1.5
vt 1.5 2.5
vt 0.5000002 2.5
vt -0.4999997 2
vt -1.5 1
vt -0.4999997 1

usemtl Dark_Grey (Instance) (Instance)
usemap Dark_Grey (Instance) (Instance)
f 198/55/36 197/359/36 196/128/36
f 198/55/36 199/372/36 197/359/36
f 201/375/1 200/374/1 196/373/1
f 197/376/1 201/375/1 196/373/1
f 202/378/34 200/353/34 201/377/34
f 202/378/34 203/66/34 200/353/34
f 203/256/43 196/359/43 200/379/43
f 203/256/43 198/372/43 196/359/43
f 198/382/6 202/381/6 199/380/6
f 198/382/6 203/383/6 202/381/6
f 199/385/44 201/384/44 197/347/44
f 199/385/44 202/386/44 201/384/44
