# Made using Asset Forge (www.assetforge.io) version 1.3 

mtllib ArrowShaftGizmo.mtl 

v 2 0.3 0.5
v 2 0.3 -0.5
v -0.5 0.3 0.5
v -0.5 0.3 -0.5
v -0.5 0.7 -0.5
v -0.5 0.7 0.5
v 2 0.7 -0.5
v 2 0.7 0.5
vn 0 -0.4 0
vn -2.5 0 0
vn 0 0 -1
vn 0 0 1
vn 2.5 0 0
vn 0 0.4 0
vt -2 -0.5
vt -2 0.5
vt 0.5 -0.5
vt 0.5 0.5
vt -0.5 0.3
vt -0.5 0.7
vt 0.5 0.3
vt 0.5 0.7
vt -2 0.3
vt -2 0.7
vt 2 0.3
vt 2 0.7

usemtl _defaultMat (Instance)
usemap _defaultMat (Instance)
f 3/3/1 2/2/1 1/1/1
f 2/2/1 3/3/1 4/4/1
f 3/7/2 5/6/2 4/5/2
f 5/6/2 3/7/2 6/8/2
f 5/8/3 2/9/3 4/7/3
f 2/9/3 5/8/3 7/10/3
f 8/12/4 3/5/4 1/11/4
f 3/5/4 8/12/4 6/6/4
f 8/6/5 2/7/5 7/8/5
f 2/7/5 8/6/5 1/5/5
f 5/3/6 8/2/6 7/1/6
f 8/2/6 5/3/6 6/4/6
